# xmcd
#
# Track frame offsets: 
#        150
#        15750
#        31275
#        51607
#        70767
#        84912
#        99497
#        120577
#        134395
#        153175
#        167647
#        185180
#        198237
#        219512
#        234950
#
# Disc length: 3260 seconds
#
# Revision: 2
# Processed by: cddbd v1.5.2PL0 Copyright (c) Steve Scherf et al.
# Submitted via: ExactAudioCopyFreeDBPlugin 1.0
#
DISCID=be0cba0f
DTITLE=Totta and Hot'N'Tots - Totta and Hot'N'Tots - Featuring Spencer Boh
DTITLE=ren
DYEAR=1989
DGENRE=Blues
TTITLE0=Aint't Going Home
TTITLE1=Disappearing Nightly
TTITLE2=Deepest Thoughts
TTITLE3=Between The Lines
TTITLE4=Sweet Southern
TTITLE5=Like A Miner Loves Gold
TTITLE6=Nothing was Delivered
TTITLE7=Witch Doctor
TTITLE8=Skin a Cat
TTITLE9=Must Be Love
TTITLE10=Everybody Needs Love
TTITLE11=Clap Your Hands
TTITLE12=Slow By Slow
TTITLE13=Fire Burns
TTITLE14=Thief Of The Night
EXTD=Torsten Näslund: vocals\nSpencer Bohren: vocals and acc.,  electr
EXTD=, dobro- and lap-steel guitar\nBengt Blomgren: electric and slide gu
EXTD=itar\nNikke Ström: bass\nColin Allen: drums and perc.\nBernt Anders
EXTD=son: keyboards and harmonica\nOlle Niklasson: saxophone and keyboards
EXTD=(drums on track 5]\n\nProduced by Walter Moon\n\nYEAR: 1989 ID3G
EXTD=: 0
EXTT0=
EXTT1=
EXTT2=
EXTT3=
EXTT4=
EXTT5=
EXTT6=
EXTT7=
EXTT8=
EXTT9=
EXTT10=
EXTT11=
EXTT12=
EXTT13=
EXTT14=
PLAYORDER=
